<svg id="bold" enable-background="new 0 0 32 32" height="512" viewBox="0 0 32 32" width="512" xmlns="http://www.w3.org/2000/svg"><path d="m26 32h-20c-3.314 0-6-2.686-6-6v-20c0-3.314 2.686-6 6-6h20c3.314 0 6 2.686 6 6v20c0 3.314-2.686 6-6 6z" fill="#e3f8fa"/><path d="m21 24h-10c-.552 0-1-.448-1-1v-.667c0-.552.448-1 1-1h10c.552 0 1 .448 1 1v.667c0 .552-.447 1-1 1z" fill="#26c6da"/><path d="m21 20h-10c-.552 0-1-.448-1-1v-.667c0-.552.448-1 1-1h10c.552 0 1 .448 1 1v.667c0 .552-.447 1-1 1z" fill="#8ce1eb"/><path d="m21 13.333h-1.667v-2c0-1.838-1.495-3.333-3.333-3.333s-3.333 1.495-3.333 3.333v2h-1.667c-.552 0-1 .448-1 1v.667c0 .552.448 1 1 1h10c.552 0 1-.448 1-1v-.667c0-.552-.447-1-1-1zm-7-2c0-1.103.897-2 2-2s2 .897 2 2v2h-4z" fill="#26c6da"/></svg>